# xmcd CD database file
#
# Track frame offsets:
#	150
#	14672
#	29125
#	41600
#	59918
#	72075
#	87856
#	104519
#	122088
#	132113
#	146289
#	173351
#	189420
#
# Disc length: 2647 seconds
#
# Revision: 0
# Processed by: cddbd v1.5.1PL0 Copyright (c) Steve Scherf et al.
# Submitted via: CDex 1.51
#
DISCID=b70a550d
DTITLE=John Altenburgh - Buzz's Restaurant
DYEAR=2000
DGENRE=Jazz
TTITLE0=Silent Night
TTITLE1=God Rest Ye Merry Gentleman
TTITLE2=Christmas Story
TTITLE3=Amazing Grace
TTITLE4=O' Christmas Tree
TTITLE5=The First Noel
TTITLE6=War is Over
TTITLE7=Have Yourself a Merry Little Christmas
TTITLE8=We Wish You a Merry Christmas
TTITLE9=Lonely Christmas
TTITLE10=Away in a Manger
TTITLE11=Charistmas at Buzz's Resturaunt
TTITLE12=Away in a Manger
EXTD=YEAR: 2000
EXTT0=
EXTT1=
EXTT2=
EXTT3=
EXTT4=
EXTT5=
EXTT6=
EXTT7=
EXTT8=
EXTT9=
EXTT10=
EXTT11=
EXTT12=
PLAYORDER=
